<?xml version="1.0" encoding="UTF-8" standalone="no"?>
<svg
   xmlns:dc="http://purl.org/dc/elements/1.1/"
   xmlns:cc="http://creativecommons.org/ns#"
   xmlns:rdf="http://www.w3.org/1999/02/22-rdf-syntax-ns#"
   xmlns:svg="http://www.w3.org/2000/svg"
   xmlns="http://www.w3.org/2000/svg"
   xmlns:sodipodi="http://sodipodi.sourceforge.net/DTD/sodipodi-0.dtd"
   xmlns:inkscape="http://www.inkscape.org/namespaces/inkscape"
   width="210mm"
   height="297mm"
   viewBox="0 0 210 297"
   version="1.1"
   id="svg8"
   sodipodi:docname="logo7final.svg"
   inkscape:version="1.0beta1 (32d4812, 2019-09-19)">
  <defs
     id="defs2" />
  <sodipodi:namedview
     id="base"
     pagecolor="#ffffff"
     bordercolor="#666666"
     borderopacity="1.0"
     inkscape:pageopacity="0.0"
     inkscape:pageshadow="2"
     inkscape:zoom="0.60822771"
     inkscape:cx="289.17538"
     inkscape:cy="654.54223"
     inkscape:document-units="mm"
     inkscape:current-layer="layer1"
     inkscape:document-rotation="0"
     showgrid="false"
     inkscape:window-width="1440"
     inkscape:window-height="855"
     inkscape:window-x="0"
     inkscape:window-y="23"
     inkscape:window-maximized="0" />
  <metadata
     id="metadata5">
    <rdf:RDF>
      <cc:Work
         rdf:about="">
        <dc:format>image/svg+xml</dc:format>
        <dc:type
           rdf:resource="http://purl.org/dc/dcmitype/StillImage" />
        <dc:title></dc:title>
      </cc:Work>
    </rdf:RDF>
  </metadata>
  <g
     inkscape:label="Layer 1"
     inkscape:groupmode="layer"
     id="layer1">
    <g
       id="g1804"
       transform="translate(15.636795,46.389159)">
      <path
         d="m 330.48633,349.06641 -82.83789,84.38281 v 179.14844 c 4.36725,57.12114 37.9653,85.6875 100.80664,85.6875 15.62499,0 31.94316,-2.16755 48.95703,-6.50782 10.42608,-2.63286 19.45747,-5.33276 27.13672,-8.09375 v -7.39453 -64.83984 c -18.29707,8.2366 -33.50523,12.35937 -45.625,12.35937 -11.45832,0 -20.05209,-1.99913 -25.78125,-5.99218 -5.55555,-4.16666 -8.94097,-9.28691 -10.15625,-15.36329 -1.21528,-6.07637 -1.82422,-14.06121 -1.82422,-23.95703 v -84.89843 h 51.69727 v -34.21289 -30.88868 h -51.69727 v -79.42968 z"
         transform="matrix(0.26458333,0,0,0.26458333,-15.636795,-46.389159)"
         style="font-weight:bold;font-size:141.111px;line-height:1.25;font-family:'Gill Sans';-inkscape-font-specification:'Gill Sans Bold';opacity:1;fill:#045d56;fill-opacity:1;stroke-width:0.999999"
         id="text34" />
      <path
         inkscape:connector-curvature="0"
         d="m 95.215484,67.595294 c -0.83891,0 -1.67507,0.01873 -2.50992,0.04909 v 7.944736 7.919929 c 3.06807,0.324765 5.14782,1.242549 6.23063,2.758488 1.340886,1.87724 2.027286,4.452535 2.063426,7.721494 0.003,0.01161 0.007,0.02238 0.0104,0.0341 0.0286,0.119336 0.0217,0.425474 0.0217,0.544153 v 2.342494 c 0,0.124743 -0.0155,0.233556 -0.0382,0.333311 -5.3e-4,0.06443 0,0.128853 0,0.193271 v 0.614949 3.128501 c 0.003,0.11232 0.006,0.11869 0.009,0.29558 0.004,0.23778 0,0.47584 0,0.71365 v 0.83716 2.39675 c 5.3e-4,-2.1e-4 10e-4,3e-5 0.002,-5.3e-4 v 16.60519 l -0.002,5.3e-4 c -0.009,1.42165 0.0118,2.8432 0,4.26485 -0.003,0.34644 -0.009,0.68197 -0.015,1.02061 0.0145,0.10293 0.0264,0.20961 0.0413,0.30231 0.0197,0.12075 0.0468,0.24016 0.0677,0.3607 0.052,0.3005 0.0871,0.60166 0.123,0.90434 0.0257,0.15104 0.0467,0.30251 0.077,0.45268 0.0299,0.14804 0.2022,0.86344 0.2403,0.99891 0.0627,0.2229 0.21287,0.62145 0.28267,0.82424 0.0388,0.11276 0.0756,0.22622 0.11265,0.33951 0.0281,0.0154 0.038,0.0318 0.016,0.0491 0.005,0.0167 0.0105,0.0329 0.016,0.0496 0.0321,0.0931 0.0652,0.18555 0.0961,0.27906 0.0267,0.0809 0.0515,0.16251 0.0765,0.24391 0.0109,0.0353 0.0187,0.0717 0.0315,0.10645 0.0315,0.0857 0.0688,0.16885 0.10128,0.25425 0.10369,0.27259 0.1041,0.28175 0.10955,0.2992 7.9e-4,-7.9e-4 0.002,-5.2e-4 0.003,-0.002 0.0112,0.0337 0.0252,0.0657 0.0367,0.0992 0.009,0.0214 0.0127,0.0302 0.12557,0.29817 0.0406,0.0966 0.0661,0.18658 0.0847,0.27337 0.70311,1.78084 1.76713,3.32688 3.19774,4.63486 1.60769,1.42397 4.45601,2.13578 8.54418,2.13578 4.31786,0 8.01524,-0.4362 11.09286,-1.30896 3.07761,-0.87276 6.43102,-2.0213 10.05985,-3.44527 v -13.02246 c -2.6642,1.33211 -4.77737,1.99833 -6.33915,1.99833 -1.28617,0 -2.18189,-0.62012 -2.68717,-1.86035 -0.45935,-1.28617 -0.68885,-3.21543 -0.68885,-5.78776 V 89.712807 c 0,-6.890187 -2.57217,-12.287856 -7.71684,-16.192294 -5.09839,-3.950372 -12.72365,-5.925219 -22.875176,-5.925219 z"
         style="font-weight:bold;font-size:141.111px;line-height:1.25;font-family:'Gill Sans';-inkscape-font-specification:'Gill Sans Bold';fill:#37efba;fill-opacity:1;stroke-width:0.264583"
         id="text38" />
    </g>
  </g>
</svg>
